<?xml version="1.0" standalone="no"?><!DOCTYPE svg PUBLIC "-//W3C//DTD SVG 1.1//EN" "http://www.w3.org/Graphics/SVG/1.1/DTD/svg11.dtd"><svg t="1606699191523" class="icon" viewBox="0 0 1024 1024" version="1.1" xmlns="http://www.w3.org/2000/svg" p-id="1687" xmlns:xlink="http://www.w3.org/1999/xlink" width="200" height="200"><defs><style type="text/css"></style></defs><path d="M588.5 113c34.993 0 63.426 28.084 63.991 62.942L652.5 177v144c0 34.993-28.084 63.426-62.942 63.991L588.5 385H544v57h170c56.863 0 103.068 45.636 103.986 102.28L818 546v94h40c34.993 0 63.426 28.084 63.991 62.942L922 704v144c0 34.993-28.084 63.426-62.942 63.991L858 912H714c-34.993 0-63.426-28.084-63.991-62.942L650 848V704c0-34.993 28.084-63.426 62.942-63.991L714 640h40v-94c0-21.87-17.552-39.641-39.339-39.995L714 506H311c-21.87 0-39.641 17.552-39.995 39.339L271 546v94h40c34.993 0 63.426 28.084 63.991 62.942L375 704v144c0 34.993-28.084 63.426-62.942 63.991L311 912H167c-34.993 0-63.426-28.084-63.991-62.942L103 848V704c0-34.993 28.084-63.426 62.942-63.991L167 640h40v-94c0-56.863 45.636-103.068 102.28-103.986L311 442h169v-57h-35.5c-34.993 0-63.426-28.084-63.991-62.942L380.5 321V177c0-34.993 28.084-63.426 62.942-63.991L444.5 113h144zM858 704H714v144h144V704z m-547 0H167v144h144V704z m277.5-527h-144v144h144V177z" p-id="1688"></path></svg>